<?xml version="1.0" encoding="UTF-8" standalone="no"?>
<!-- Created with Inkscape (http://www.inkscape.org/) -->

<svg
   xmlns:dc="http://purl.org/dc/elements/1.1/"
   xmlns:cc="http://creativecommons.org/ns#"
   xmlns:rdf="http://www.w3.org/1999/02/22-rdf-syntax-ns#"
   xmlns:svg="http://www.w3.org/2000/svg"
   xmlns="http://www.w3.org/2000/svg"
   xmlns:sodipodi="http://sodipodi.sourceforge.net/DTD/sodipodi-0.dtd"
   xmlns:inkscape="http://www.inkscape.org/namespaces/inkscape"
   width="210mm"
   height="297mm"
   viewBox="0 0 210 297"
   version="1.1"
   id="svg8"
   sodipodi:docname="logo.svg"
   inkscape:export-filename="/home/pi/bitmap.png"
   inkscape:export-xdpi="96"
   inkscape:export-ydpi="96"
   inkscape:version="0.92.5 (2060ec1f9f, 2020-04-08)">
  <defs
     id="defs2">
    <marker
       inkscape:stockid="Arrow1Lstart"
       orient="auto"
       refY="0.0"
       refX="0.0"
       id="Arrow1Lstart"
       style="overflow:visible"
       inkscape:isstock="true">
      <path
         id="path845"
         d="M 0.0,0.0 L 5.0,-5.0 L -12.5,0.0 L 5.0,5.0 L 0.0,0.0 z "
         style="fill-rule:evenodd;stroke:#000000;stroke-width:1pt;stroke-opacity:1;fill:#000000;fill-opacity:1"
         transform="scale(0.8) translate(12.5,0)" />
    </marker>
  </defs>
  <sodipodi:namedview
     id="base"
     pagecolor="#ffffff"
     bordercolor="#666666"
     borderopacity="1.0"
     inkscape:pageopacity="0.0"
     inkscape:pageshadow="2"
     inkscape:zoom="0.7"
     inkscape:cx="-75.45727"
     inkscape:cy="537.08134"
     inkscape:document-units="mm"
     inkscape:current-layer="layer1"
     showgrid="false"
     inkscape:window-width="1920"
     inkscape:window-height="1043"
     inkscape:window-x="0"
     inkscape:window-y="0"
     inkscape:window-maximized="1" />
  <metadata
     id="metadata5">
    <rdf:RDF>
      <cc:Work
         rdf:about="">
        <dc:format>image/svg+xml</dc:format>
        <dc:type
           rdf:resource="http://purl.org/dc/dcmitype/StillImage" />
      </cc:Work>
    </rdf:RDF>
  </metadata>
  <g
     inkscape:label="Layer 1"
     inkscape:groupmode="layer"
     id="layer1">
    <path
       style="fill:#000000;stroke-width:0.01724237"
       d=""
       id="path1998"
       inkscape:connector-curvature="0" />
    <path
       style="fill:#000000;stroke-width:0.01724237"
       d=""
       id="path1996"
       inkscape:connector-curvature="0" />
    <g
       id="g2329"
       transform="translate(-23.434524,4.1577381)">
      <path
         inkscape:export-ydpi="96"
         inkscape:export-xdpi="96"
         inkscape:export-filename="/home/pi/Pictures/conference-manager-logo.png"
         transform="rotate(-30.609299,56.009753,-27.155261)"
         inkscape:transform-center-y="-3.6518903"
         inkscape:transform-center-x="5.977349"
         d="m 112.95441,136.32232 c -2.50031,2.63669 -44.904175,18.7499 -48.52454,18.43903 -3.620365,-0.31087 -42.656557,-23.41713 -44.670768,-26.44147 -2.014212,-3.02434 -8.287681,-47.950577 -7.178997,-51.410996 1.108684,-3.460419 32.321988,-36.376267 35.718706,-37.666999 3.396718,-1.290732 48.592541,2.590117 51.719499,4.441019 3.12695,1.850903 28.27191,39.60609 28.77444,43.20486 0.50253,3.59877 -13.33803,46.797866 -15.83834,49.434556 z"
         inkscape:randomized="0"
         inkscape:rounded="0.07"
         inkscape:flatsided="true"
         sodipodi:arg2="1.2076547"
         sodipodi:arg1="0.75885573"
         sodipodi:r2="60.424198"
         sodipodi:r1="59.819958"
         sodipodi:cy="95.160713"
         sodipodi:cx="69.547623"
         sodipodi:sides="7"
         id="path815"
         style="fill:#6788ff;fill-opacity:1;stroke:none;stroke-width:0.47399998;stroke-miterlimit:4;stroke-dasharray:none;stroke-opacity:1"
         sodipodi:type="star" />
      <path
         inkscape:transform-center-y="68.740846"
         inkscape:transform-center-x="77.621242"
         sodipodi:nodetypes="cccccccccc"
         inkscape:connector-curvature="0"
         id="path2307"
         d="m 163.24307,44.273854 -26.003,57.186266 c -2.08747,5.18512 -4.45163,4.20568 -6.92765,0.73405 L 120.03176,88.848037 109.78353,87.349543 c -1.54893,-0.327967 -2.65224,-1.200834 -2.48446,-3.62786 l 1.21372,-9.866746 -10.845308,-14.686765 c -2.183411,-3.432769 -0.631343,-4.688041 2.136235,-5.234769 z"
         style="fill:#ffffff;fill-opacity:1;stroke:none;stroke-width:0.23023249px;stroke-linecap:butt;stroke-linejoin:miter;stroke-opacity:1" />
    </g>
    <g
       id="g2369"
       transform="translate(50.64881,29.860119)">
      <path
         inkscape:export-ydpi="96"
         inkscape:export-xdpi="96"
         inkscape:export-filename="/home/pi/Pictures/conference-manager-logo.png"
         transform="rotate(-30.609299,225.29081,161.52953)"
         inkscape:transform-center-y="-3.6518903"
         inkscape:transform-center-x="5.977349"
         d="m 112.95441,136.32232 c -2.50031,2.63669 -44.904175,18.7499 -48.52454,18.43903 -3.620365,-0.31087 -42.656557,-23.41713 -44.670768,-26.44147 -2.014212,-3.02434 -8.287681,-47.950577 -7.178997,-51.410996 1.108684,-3.460419 32.321988,-36.376267 35.718706,-37.666999 3.396718,-1.290732 48.592541,2.590117 51.719499,4.441019 3.12695,1.850903 28.27191,39.60609 28.77444,43.20486 0.50253,3.59877 -13.33803,46.797866 -15.83834,49.434556 z"
         inkscape:randomized="0"
         inkscape:rounded="0.07"
         inkscape:flatsided="true"
         sodipodi:arg2="1.2076547"
         sodipodi:arg1="0.75885573"
         sodipodi:r2="60.424198"
         sodipodi:r1="59.819958"
         sodipodi:cy="95.160713"
         sodipodi:cx="69.547623"
         sodipodi:sides="7"
         id="path815-9"
         style="fill:#ffffff;fill-opacity:1;stroke:#6788ff;stroke-width:6.27400017;stroke-miterlimit:4;stroke-dasharray:none;stroke-opacity:1"
         sodipodi:type="star" />
      <path
         inkscape:transform-center-y="68.740846"
         inkscape:transform-center-x="77.621242"
         sodipodi:nodetypes="cccccccccc"
         inkscape:connector-curvature="0"
         id="path2307-3"
         d="m 90.756066,156.76003 -26.003,57.18626 c -2.08747,5.18512 -4.45163,4.20568 -6.92765,0.73405 l -10.28066,-13.34613 -10.24823,-1.4985 c -1.548932,-0.32796 -2.652242,-1.20083 -2.484462,-3.62786 l 1.213721,-9.86674 -10.845309,-14.68677 c -2.183411,-3.43277 -0.631343,-4.68804 2.136234,-5.23477 z"
         style="opacity:1;fill:#6788ff;fill-opacity:1;stroke:none;stroke-width:0.23023249px;stroke-linecap:butt;stroke-linejoin:miter;stroke-opacity:1" />
    </g>
  </g>
</svg>
